<svg xmlns="http://www.w3.org/2000/svg" version="1.1" xmlns:xlink="http://www.w3.org/1999/xlink" xmlns:svgjs="http://svgjs.com/svgjs" width="512" height="512" x="0" y="0" viewBox="-100 -100 809.62 809.62" style="enable-background:new 0 0 512 512" xml:space="preserve" class=""><g><path d="M598.124 160.808 314.152 23.714C310.614 8.694 296.41-1.312 281.075.413s-26.96 14.637-27.073 30.068V46.89l-86.363 95.507L81.277 46.89V30.481C81.277 13.647 67.631 0 50.796 0S20.315 13.647 20.315 30.481v520.047C6.329 555.454-2.065 569.75.448 584.364s15.199 25.285 30.028 25.257h40.641c16.834 0 30.481-13.647 30.481-30.481a30.128 30.128 0 0 0-1.87-10.16h135.823a30.152 30.152 0 0 0-1.87 10.16c0 16.834 13.647 30.481 30.481 30.481h132.084c11.223 0 20.321-9.098 20.321-20.321v-20.321c0-11.223-9.098-20.321-20.321-20.321V274.329c11.223 0 20.321-9.098 20.321-20.321v-20.321h40.641v20.321c0 11.223 9.098 20.321 20.321 20.321v274.329c-11.223 0-20.321 9.098-20.321 20.321V589.3c0 11.223 9.098 20.321 20.321 20.321h101.603c11.223 0 20.321-9.098 20.321-20.321v-20.321c0-11.223-9.098-20.321-20.321-20.321V274.329c11.223 0 20.321-9.098 20.321-20.321v-20.321a19.455 19.455 0 0 0-.274-2.682 20.25 20.25 0 0 0 10.435-17.638v-34.261a20.37 20.37 0 0 0-11.49-18.298zm-283.159 387.85V274.329h20.321v274.329zm0-501.992 240.068 115.899H314.965zm-40.641-16.185c0-5.611 4.549-10.16 10.16-10.16s10.16 4.549 10.16 10.16v518.177h-20.321V30.481zm-20.321 300.746v160.635l-72.667-80.368zm-86.363 65.128L94.008 314.97h147.264zm86.363-101.705H81.277v-20.321h172.726zM153.944 411.494l-72.667 80.317V331.227zm13.696 15.139 73.632 81.384H94.008zM94.008 254.008l73.632-81.384 73.632 81.384zm-12.731 274.33h172.726v20.321H81.277zM254.003 77.219v160.635l-72.667-80.368zm-100.059 80.266-72.667 80.317V77.219zM40.636 30.481c0-5.611 4.549-10.16 10.16-10.16s10.16 4.549 10.16 10.16v518.177h-20.32zm40.641 548.658c0 5.611-4.549 10.16-10.16 10.16H30.476c-5.611 0-10.16-4.549-10.16-10.16s4.549-10.16 10.16-10.16h40.641c5.611 0 10.16 4.549 10.16 10.16zM294.645 589.3h-30.481c-5.611 0-10.16-4.549-10.16-10.16s4.549-10.16 10.16-10.16h40.641c5.611 0 10.16 4.549 10.16 10.16s-4.549 10.16-10.16 10.16zm101.603 0h-62.832a28.542 28.542 0 0 0 0-20.321h62.832zm-20.321-40.642h-20.321V274.329h20.321zm20.321-294.65h-81.283v-20.321h81.283zm0-40.641h-81.283v-30.481h274.329v30.481zm101.603 60.962h20.321v274.329h-20.321zM579.134 589.3H477.531v-20.321h101.603zm-20.321-40.642h-20.321V274.329h20.321zm10.161-294.65h-91.443v-20.321h101.603v20.321z" fill="#ffffff" data-original="#000000" class=""></path></g></svg>