<svg xmlns="http://www.w3.org/2000/svg" version="1.1" xmlns:xlink="http://www.w3.org/1999/xlink" xmlns:svgjs="http://svgjs.com/svgjs" width="512" height="512" x="0" y="0" viewBox="0 0 128 128" style="enable-background:new 0 0 512 512" xml:space="preserve" class=""><g><path d="M85.792 48.5V25.936a1.749 1.749 0 0 0-1.75-1.75H43.958a1.749 1.749 0 0 0-1.75 1.75V48.5a1.749 1.749 0 0 0 1.75 1.75h40.084a1.749 1.749 0 0 0 1.75-1.75Zm-3.5-1.75H45.708V27.686h36.584Z" fill="#ffffff" data-original="#000000" class=""></path><path d="M55.844 41.531a1.749 1.749 0 0 0 1.75-1.75v-5.125a1.75 1.75 0 0 0-3.5 0v5.125a1.749 1.749 0 0 0 1.75 1.75ZM72.156 41.531a1.749 1.749 0 0 0 1.75-1.75v-5.125a1.75 1.75 0 0 0-3.5 0v5.125a1.749 1.749 0 0 0 1.75 1.75Z" fill="#ffffff" data-original="#000000" class=""></path><path d="M104.833 83.072v-4.1a9.565 9.565 0 0 0-9.555-9.555H89.25V67.5a1.749 1.749 0 0 0-1.75-1.75H71.54v-8.081h21.115a1.749 1.749 0 0 0 1.75-1.75v-37.4a1.749 1.749 0 0 0-1.75-1.75h-57.31a1.749 1.749 0 0 0-1.75 1.75v37.4a1.749 1.749 0 0 0 1.75 1.75H56.46v8.081H40.5a1.749 1.749 0 0 0-1.75 1.75v1.917h-6.028a9.565 9.565 0 0 0-9.555 9.555v4.1a10.465 10.465 0 0 0 4.065 20.107 1.75 1.75 0 0 0 0-3.5 6.965 6.965 0 1 1 6.968-6.965 1.75 1.75 0 0 0 3.5 0A10.476 10.476 0 0 0 27.232 82.25c-.19 0-.377.018-.565.029v-3.307a6.062 6.062 0 0 1 6.055-6.055h6.028v13.065a25.25 25.25 0 0 0 50.5 0V72.917h6.028a6.062 6.062 0 0 1 6.055 6.055v3.307c-.188-.011-.375-.029-.565-.029A10.476 10.476 0 0 0 90.3 92.714a1.75 1.75 0 0 0 3.5 0 6.964 6.964 0 1 1 6.964 6.965 1.75 1.75 0 0 0 0 3.5 10.465 10.465 0 0 0 4.065-20.107ZM50.454 69.25h27.092v16.281a13.546 13.546 0 0 1-27.092 0ZM37.1 20.268h53.81v33.9H37.1Zm22.865 37.4h8.08v8.082H59.96ZM85.75 85.982a21.75 21.75 0 0 1-43.5 0V69.25h4.7v16.281a17.046 17.046 0 0 0 34.092 0V69.25h4.7Z" fill="#ffffff" data-original="#000000" class=""></path></g></svg>