<?xml version="1.0" encoding="utf-8"?>
<svg viewBox="0 0 430 100" xmlns="http://www.w3.org/2000/svg" xmlns:bx="https://boxy-svg.com">
  <path d="M 0 7.5 C -0.05300000000000001 0.18 7.5 0 7.5 0 L 87.5 0 C 100 0 100 10 100 12.5 C 100 15 100 25 87.5 25 L 50 25 L 50 75 L 87.5 75 C 100 75 100 85 100 87.5 C 100 90 100 100 87.5 100 L 7.5 100 C 0 100 0 92.5 0 92.5 L 0 7.5 Z" style="fill: rgb(255, 255, 255); stroke-linejoin: bevel; stroke-width: 0px;" bx:origin="0 0"/>
  <path d="M 110 7.5 C 109.878 0.231 117.542 -0.003 117.5 0 L 152.5 0 C 160 0 160 7.5 160 7.5 L 160 50 L 185 50 L 185 7.5 C 185 0 192.5 0 192.5 0 L 202.5 0 C 210 0 210 7.46 210 7.5 L 210 92.5 C 210 100 202.464 100.017 202.5 100 L 192.5 100 C 185.5 100 185.062 92.578 185 92.5 L 185 75 L 160 75 L 160 92.5 C 160 100 152.554 99.967 152.5 100 L 117.5 100 C 110 100 110.039 92.5 110 92.5 L 110 7.5 Z" style="fill: rgb(255, 255, 255);" bx:origin="-1.1 0"/>
  <path d="M 220 7.5 C 220 -0.006 227.5 0.023 227.5 0 L 312.5 0 C 319.705 -0.083 319.988 7.506 320 7.5 L 320 92.5 C 320.056 99.918 312.555 99.982 312.5 100 L 302.5 100 C 295.099 99.872 295.028 92.472 295 92.5 L 295 25 L 270 25 L 270 92.5 C 269.891 99.9 262.516 100.031 262.5 100 L 227.5 100 C 220.492 99.858 220.024 92.571 220 92.5 L 220 7.5 Z" style="fill: rgb(255, 255, 255);" bx:origin="-2.2 0"/>
  <path d="M 260 50 L 305 50 L 305 75 L 260 75 L 260 50 Z" style="fill: rgb(255, 255, 255);" bx:origin="-10.8 -2"/>
  <path d="M 330 7.5 C 330.111 -0.022 337.468 0.079 337.5 0 L 410.045 0 C 417.795 0.091 430.019 14.623 430 20 L 430 25 L 380 25 L 380 100 L 337.5 100 C 330.326 99.939 329.957 92.573 330 92.5 L 330 7.5 Z" style="fill: rgb(255, 255, 255);" bx:origin="-3.3 0"/>
  <path d="M 380 74.999 L 410 75 L 410 100 L 370 99.9 L 370 75 L 380 74.999 Z" style="fill: rgb(255, 255, 255);" bx:origin="-10.8 -1.99988"/>
  <path d="M 405 20 L 430 20 L 430 92.461 C 430.1 100 422.559 100.011 422.5 99.956 L 405 99.956 L 405 20 Z" style="fill: rgb(255, 255, 255);" bx:origin="-16.2 0"/>
</svg>