<?xml version="1.0" encoding="utf-8"?>
<svg viewBox="-50 -50 310 310" xmlns="http://www.w3.org/2000/svg" xmlns:bx="https://boxy-svg.com">
  <path d="M 0 7.5 C -0.05300000000000001 0.18 7.5 0 7.5 0 L 87.5 0 C 100 0 100 10 100 12.5 C 100 15 100 25 87.5 25 L 50 25 L 50 75 L 87.5 75 C 100 75 100 85 100 87.5 C 100 90 100 100 87.5 100 L 7.5 100 C 0 100 0 92.5 0 92.5 L 0 7.5 Z" style="fill: rgb(255, 255, 255); stroke-linejoin: bevel; stroke-width: 0px;" bx:origin="0 0"/>
  <path d="M 110 7.5 C 109.878 0.231 117.542 -0.003 117.5 0 L 152.5 0 C 160 0 160 7.5 160 7.5 L 160 50 L 185 50 L 185 7.5 C 185 0 192.5 0 192.5 0 L 202.5 0 C 210 0 210 7.46 210 7.5 L 210 92.5 C 210 100 202.464 100.017 202.5 100 L 192.5 100 C 185.5 100 185.062 92.578 185 92.5 L 185 75 L 160 75 L 160 92.5 C 160 100 152.554 99.967 152.5 100 L 117.5 100 C 110 100 110.039 92.5 110 92.5 L 110 7.5 Z" style="fill: rgb(255, 255, 255);" bx:origin="-1.1 0"/>
  <path d="M 0 117.501 C 0 109.995 7.5 110.024 7.5 110.001 L 92.5 110.001 C 99.705 109.918 99.988 117.507 100 117.501 L 100 202.501 C 100.056 209.919 92.555 209.983 92.5 210.001 L 82.5 210.001 C 75.099 209.873 75.028 202.473 75 202.501 L 75 135.001 L 50 135.001 L 50 202.501 C 49.891 209.901 42.516 210.032 42.5 210.001 L 7.5 210.001 C 0.492 209.859 0.024 202.572 0 202.501 L 0 117.501 Z" style="fill: rgb(255, 255, 255);" bx:origin="-2.2 0"/>
  <path d="M 40 160 L 85 160 L 85 185 L 40 185 L 40 160 Z" style="fill: rgb(255, 255, 255);" bx:origin="-10.8 -2"/>
  <path d="M 110.003 117.5 C 110.114 109.978 117.471 110.079 117.503 110 L 190.048 110 C 197.798 110.091 210.022 124.623 210.003 130 L 210.003 135 L 160.003 135 L 160.003 210 L 117.503 210 C 110.329 209.939 109.96 202.573 110.003 202.5 L 110.003 117.5 Z" style="fill: rgb(255, 255, 255);" bx:origin="-3.3 0"/>
  <path d="M 160 185 L 190 185.001 L 190 210.001 L 150 209.901 L 150 185.001 L 160 185 Z" style="fill: rgb(255, 255, 255);" bx:origin="-10.8 -1.99988"/>
  <path d="M 185 130 L 210 130 L 210 202.461 C 210.1 210 202.559 210.011 202.5 209.956 L 185 209.956 L 185 130 Z" style="fill: rgb(255, 255, 255);" bx:origin="-16.2 0"/>
</svg>