<svg width="700pt" height="700pt" version="1.1" viewBox="0 0 700 570" xmlns="http://www.w3.org/2000/svg" xmlns:xlink="http://www.w3.org/1999/xlink" fill="#fff">
  <path d="m598.05 265.5c-0.023438-0.16016-0.023438-0.32422-0.050782-0.49219-0.20312-1.0078-0.54297-2-0.99609-2.9531-0.10937-0.23828-0.25391-0.46094-0.38672-0.6875-0.19141-0.36328-0.35156-0.73047-0.58984-1.0781-0.27734-0.39844-0.62891-0.73047-0.93359-1.0898-0.10938-0.125-0.15234-0.26953-0.26562-0.38672l-80.168-83.965c-4.4609-4.6719-11.766-5.0938-16.758-0.97656l-57.113 47.355c-2.7148-37.676-6.4922-76.215-10.934-84.277-1.1992-2.1719-3.0156-3.9258-5.2305-5.0391l-128.16-64.715c-0.10938-0.0625-0.22656-0.085937-0.35156-0.13672-0.27734-0.12891-0.56641-0.23438-0.86719-0.35156-0.42969-0.16016-0.86719-0.3125-1.2969-0.42578-0.28906-0.074219-0.56641-0.12891-0.85547-0.17188-0.48047-0.09375-0.96094-0.14062-1.4531-0.17188-0.26562-0.019531-0.54297-0.035156-0.82031-0.03125-0.54297 0.007812-1.0703 0.054688-1.6133 0.12891-0.17969 0.023438-0.36328 0.007813-0.54297 0.042969-0.0625 0.011719-0.10938 0.042969-0.17969 0.054687-0.70703 0.13672-1.4102 0.33984-2.0781 0.60938-0.20312 0.078124-0.375 0.17969-0.56641 0.26562-0.51562 0.23828-1.0352 0.49219-1.5156 0.80078-0.28906 0.17969-0.52734 0.38672-0.79297 0.58984-0.33984 0.25391-0.67188 0.50391-0.98438 0.78906-0.25391 0.24609-0.49219 0.51172-0.73047 0.77344-0.16797 0.19141-0.375 0.36328-0.52734 0.56641l-99.227 124.66c-0.023437 0.023438-0.035156 0.050781-0.0625 0.074219v0.007812c-0.62891 0.78125-1.1211 1.668-1.5391 2.6094-0.125 0.26953-0.22656 0.54688-0.32422 0.83203-0.10938 0.28906-0.26562 0.55859-0.35156 0.86328-0.12891 0.46094-0.16797 0.92188-0.23828 1.3906-0.050781 0.24609-0.10938 0.48438-0.12891 0.73828-0.10938 1.0078-0.085937 2.0117 0.050781 2.9922 0.035156 0.17969 0.097656 0.36328 0.12891 0.54297 0.15234 0.84766 0.40625 1.6602 0.73047 2.4375 0.0625 0.14844 0.074219 0.30859 0.14062 0.44922l14.504 31.18-47.023-6.0664c-3.2305-0.41406-6.5156 0.46875-9.0898 2.4609-2.5859 1.9883-4.2773 4.9336-4.6875 8.1719l-11.051 85.957c-0.023438 0.16016 0.011719 0.32422-0.011719 0.48438-0.011719 0.21484-0.074219 0.41797-0.085937 0.64062-0.011719 0.29688 0.050781 0.57812 0.0625 0.86719 0.011718 0.37109 0.023437 0.73047 0.074218 1.1016 0.0625 0.51172 0.16797 0.99609 0.30078 1.4883 0.074218 0.32422 0.14062 0.64453 0.25391 0.96484 0.17969 0.51172 0.40625 0.99219 0.64453 1.4766 0.12891 0.26953 0.25391 0.55469 0.40625 0.8125 0.32422 0.54297 0.69531 1.0391 1.0938 1.5195 0.12891 0.14844 0.21484 0.32422 0.35156 0.46875l103.5 114.21c2.3711 2.6094 5.6992 4.043 9.1211 4.043 1.0078 0 2.043-0.12891 3.0508-0.38672l47.766-12.223c0.36328-0.09375 0.67187-0.25391 1.0234-0.375l9.3281 20.035c1.3359 2.8672 3.7227 5.1133 6.6719 6.2695l66.504 26.055c0.074219 0.023438 0.14062 0.035156 0.21484 0.0625 0.46875 0.17188 0.96094 0.30859 1.4648 0.41797 0.20312 0.050781 0.41797 0.12891 0.64062 0.16016 0.70703 0.12891 1.4258 0.20312 2.168 0.20312h0.011719c0.84375 0 1.6797-0.11719 2.5-0.28125 0.097657-0.019531 0.17969-0.011718 0.26562-0.03125 0.21484-0.054687 0.40625-0.14844 0.62891-0.21484 0.45703-0.12891 0.89844-0.26953 1.3359-0.44922 0.32422-0.13672 0.64062-0.29688 0.93359-0.44922 0.375-0.19141 0.73047-0.39453 1.082-0.63281 0.32422-0.21094 0.62891-0.42969 0.91016-0.66406 0.15234-0.125 0.32422-0.21094 0.46875-0.33984l33.859-29.762c1.2266-1.0781 2.1797-2.3516 2.8633-3.7188l35.648 21.949c0.14062 0.09375 0.3125 0.11719 0.45703 0.19531 0.25391 0.14062 0.48047 0.32422 0.75781 0.45703 0.42969 0.19531 0.86719 0.29688 1.3125 0.44141 0.30078 0.10547 0.60156 0.23438 0.91016 0.3125 0.99609 0.25391 2.0078 0.41406 3.0156 0.41406 1.0234 0 2.0312-0.17188 3.0273-0.42578 0.22656-0.0625 0.44141-0.11719 0.67188-0.18359 0.96094-0.30859 1.9141-0.6875 2.7891-1.2383 0.035157-0.023437 0.074219-0.0625 0.10938-0.085937 0.60156-0.38281 1.1758-0.80078 1.7031-1.293l53.691-49.109c1.2852-1.168 2.3086-2.6094 2.9922-4.2031l67.617-156.63c0.023438-0.054688 0.023438-0.10938 0.050782-0.16016 0.40625-0.98438 0.67188-2.0117 0.82031-3.0664 0.023438-0.23828 0.035156-0.47266 0.0625-0.71875 0.050782-0.91406 0.023438-1.8242-0.10547-2.7383zm-93.273-65.359 62.461 65.422c-0.80469 0.57812-1.5391 1.1094-2.4062 1.7305-15.891 11.457-54.074 38.984-69.457 49.207l-66.418-53.488zm-47.543 253.93-34.652-21.34-0.64063-143.77 58.953 47.488c-8.543 45.922-18.148 94.168-23.66 117.62zm-55.52-200.44c-0.64062 0.52344-1.2383 1.125-1.7773 1.7969-0.035156 0.035157-0.050781 0.085938-0.085937 0.12891-0.17969 0.22656-0.3125 0.48437-0.48047 0.72656-0.32422 0.48438-0.64453 0.96484-0.89844 1.4766-0.12891 0.27734-0.21484 0.57422-0.33984 0.86328-0.20312 0.51562-0.39453 1.0273-0.52734 1.5586-0.074219 0.32031-0.125 0.64062-0.17969 0.96484-0.085938 0.52734-0.14063 1.0508-0.16797 1.5859 0 0.16016-0.050781 0.3125-0.050781 0.47266l0.78125 176.47c0.011718 3.3125 1.3828 6.3984 3.6914 8.6719l-16.66 14.633-50.555-219.02c4.0977-3.5742 9.9258-8.6094 16.309-14.125 27.703-23.926 48.148-41.766 61.297-53.883 1.9258 18.117 3.8945 42.215 5.3711 64.629zm-117.98-146.66 21.41 115.39-92.371-26.227zm45.281 109.15-21.465-115.76 96.973 48.965c-13.113 12.918-50.48 45.188-69.82 61.891-2.0078 1.7383-3.8984 3.3555-5.6875 4.9062zm-121.74 49.586 16.574 35.625c-28.5 6.4258-57.391 12.574-74.254 15.676l7.4414-57.789zm35.691 166.14-83.137-91.742c22.473-4.2344 54.125-11.273 74.652-15.938l45.676 98.16zm-28.828-209.74 96.355 27.355 49.926 216.4-40.18-15.746zm293.92 194.55-21.742 19.883c6.9727-32.598 15.023-75.312 19.102-97.25 7.0234-4.4375 21.008-14.117 51.602-36.043z"/>
</svg>
